<?xml version="1.0" standalone="no"?>
 <!DOCTYPE svg PUBLIC "-//W3C//DTD SVG 1.1//EN" 
 "http://www.w3.org/Graphics/SVG/1.1/DTD/svg11.dtd"> 
<svg
  xmlns:svg="http://www.w3.org/2000/svg"
  xmlns="http://www.w3.org/2000/svg"
  xmlns:xlink="http://www.w3.org/1999/xlink"
  version="1.1"
  width="32.0294mm" height="32.0294mm" viewBox="0.0000 0.0000 32.0294 32.0294">
<title>SVG Image created as MilkV_DuoModule01_Stamp_88.svg date 2025/11/14 02:03:25 </title>
  <desc>Image generated by PCBNEW </desc>
<g style="fill:#000000; fill-opacity:1.0000;stroke:#000000; stroke-opacity:1.0000;
stroke-linecap:round; stroke-linejoin:round;"
 transform="translate(0 0) scale(1 1)">
</g>
<g style="fill:#000000; fill-opacity:1.0000; 
stroke:#000000; stroke-width:0.0212; stroke-opacity:1; 
stroke-linecap:round; stroke-linejoin:round;">
<rect x="-5.000000" y="-5.000000" width="42.050000" height="42.050000" rx="0.000000" />
<path style="fill:#37CBCB; fill-opacity:1.0000; stroke:none;fill-rule:evenodd;"
d="M 0.8750,4.1000
2.8750,4.1000
2.8750,4.8500
0.8750,4.8500
Z" /> 
<path style="fill:#37CBCB; fill-opacity:1.0000; stroke:none;fill-rule:evenodd;"
d="M 0.8750,5.9500
0.8750,5.2000
2.8750,5.2000
2.8750,5.9500
Z" /> 
<path style="fill:#37CBCB; fill-opacity:1.0000; stroke:none;fill-rule:evenodd;"
d="M 0.8750,7.0500
0.8750,6.3000
2.8750,6.3000
2.8750,7.0500
Z" /> 
<path style="fill:#37CBCB; fill-opacity:1.0000; stroke:none;fill-rule:evenodd;"
d="M 0.8750,8.1500
0.8750,7.4000
2.8750,7.4000
2.8750,8.1500
Z" /> 
<path style="fill:#37CBCB; fill-opacity:1.0000; stroke:none;fill-rule:evenodd;"
d="M 0.8750,9.2500
0.8750,8.5000
2.8750,8.5000
2.8750,9.2500
Z" /> 
<path style="fill:#37CBCB; fill-opacity:1.0000; stroke:none;fill-rule:evenodd;"
d="M 0.8750,10.3500
0.8750,9.6000
2.8750,9.6000
2.8750,10.3500
Z" /> 
<path style="fill:#37CBCB; fill-opacity:1.0000; stroke:none;fill-rule:evenodd;"
d="M 0.8750,11.4500
0.8750,10.7000
2.8750,10.7000
2.8750,11.4500
Z" /> 
<path style="fill:#37CBCB; fill-opacity:1.0000; stroke:none;fill-rule:evenodd;"
d="M 0.8750,12.5500
0.8750,11.8000
2.8750,11.8000
2.8750,12.5500
Z" /> 
<path style="fill:#37CBCB; fill-opacity:1.0000; stroke:none;fill-rule:evenodd;"
d="M 0.8750,13.6500
0.8750,12.9000
2.8750,12.9000
2.8750,13.6500
Z" /> 
<path style="fill:#37CBCB; fill-opacity:1.0000; stroke:none;fill-rule:evenodd;"
d="M 0.8750,14.7500
0.8750,14.0000
2.8750,14.0000
2.8750,14.7500
Z" /> 
<path style="fill:#37CBCB; fill-opacity:1.0000; stroke:none;fill-rule:evenodd;"
d="M 0.8750,15.8500
0.8750,15.1000
2.8750,15.1000
2.8750,15.8500
Z" /> 
<path style="fill:#37CBCB; fill-opacity:1.0000; stroke:none;fill-rule:evenodd;"
d="M 0.8750,16.9500
0.8750,16.2000
2.8750,16.2000
2.8750,16.9500
Z" /> 
<path style="fill:#37CBCB; fill-opacity:1.0000; stroke:none;fill-rule:evenodd;"
d="M 0.8750,18.0500
0.8750,17.3000
2.8750,17.3000
2.8750,18.0500
Z" /> 
<path style="fill:#37CBCB; fill-opacity:1.0000; stroke:none;fill-rule:evenodd;"
d="M 0.8750,19.1500
0.8750,18.4000
2.8750,18.4000
2.8750,19.1500
Z" /> 
<path style="fill:#37CBCB; fill-opacity:1.0000; stroke:none;fill-rule:evenodd;"
d="M 0.8750,20.2500
0.8750,19.5000
2.8750,19.5000
2.8750,20.2500
Z" /> 
<path style="fill:#37CBCB; fill-opacity:1.0000; stroke:none;fill-rule:evenodd;"
d="M 0.8750,21.3500
0.8750,20.6000
2.8750,20.6000
2.8750,21.3500
Z" /> 
<path style="fill:#37CBCB; fill-opacity:1.0000; stroke:none;fill-rule:evenodd;"
d="M 0.8750,22.4500
0.8750,21.7000
2.8750,21.7000
2.8750,22.4500
Z" /> 
<path style="fill:#37CBCB; fill-opacity:1.0000; stroke:none;fill-rule:evenodd;"
d="M 0.8750,23.5500
0.8750,22.8000
2.8750,22.8000
2.8750,23.5500
Z" /> 
<path style="fill:#37CBCB; fill-opacity:1.0000; stroke:none;fill-rule:evenodd;"
d="M 0.8750,24.6500
0.8750,23.9000
2.8750,23.9000
2.8750,24.6500
Z" /> 
<path style="fill:#37CBCB; fill-opacity:1.0000; stroke:none;fill-rule:evenodd;"
d="M 0.8750,25.7500
0.8750,25.0000
2.8750,25.0000
2.8750,25.7500
Z" /> 
<path style="fill:#37CBCB; fill-opacity:1.0000; stroke:none;fill-rule:evenodd;"
d="M 0.8750,26.8500
0.8750,26.1000
2.8750,26.1000
2.8750,26.8500
Z" /> 
<path style="fill:#37CBCB; fill-opacity:1.0000; stroke:none;fill-rule:evenodd;"
d="M 0.8750,27.9500
0.8750,27.2000
2.8750,27.2000
2.8750,27.9500
Z" /> 
<path style="fill:#37CBCB; fill-opacity:1.0000; stroke:none;fill-rule:evenodd;"
d="M 4.8500,31.1750
4.1000,31.1750
4.1000,29.1750
4.8500,29.1750
Z" /> 
<path style="fill:#37CBCB; fill-opacity:1.0000; stroke:none;fill-rule:evenodd;"
d="M 5.9500,31.1750
5.2000,31.1750
5.2000,29.1750
5.9500,29.1750
Z" /> 
<path style="fill:#37CBCB; fill-opacity:1.0000; stroke:none;fill-rule:evenodd;"
d="M 7.0500,31.1750
6.3000,31.1750
6.3000,29.1750
7.0500,29.1750
Z" /> 
<path style="fill:#37CBCB; fill-opacity:1.0000; stroke:none;fill-rule:evenodd;"
d="M 8.1500,31.1750
7.4000,31.1750
7.4000,29.1750
8.1500,29.1750
Z" /> 
<path style="fill:#37CBCB; fill-opacity:1.0000; stroke:none;fill-rule:evenodd;"
d="M 9.2500,31.1750
8.5000,31.1750
8.5000,29.1750
9.2500,29.1750
Z" /> 
<path style="fill:#37CBCB; fill-opacity:1.0000; stroke:none;fill-rule:evenodd;"
d="M 10.3500,31.1750
9.6000,31.1750
9.6000,29.1750
10.3500,29.1750
Z" /> 
<path style="fill:#37CBCB; fill-opacity:1.0000; stroke:none;fill-rule:evenodd;"
d="M 11.4500,31.1750
10.7000,31.1750
10.7000,29.1750
11.4500,29.1750
Z" /> 
<path style="fill:#37CBCB; fill-opacity:1.0000; stroke:none;fill-rule:evenodd;"
d="M 12.5500,31.1750
11.8000,31.1750
11.8000,29.1750
12.5500,29.1750
Z" /> 
<path style="fill:#37CBCB; fill-opacity:1.0000; stroke:none;fill-rule:evenodd;"
d="M 13.6500,31.1750
12.9000,31.1750
12.9000,29.1750
13.6500,29.1750
Z" /> 
<path style="fill:#37CBCB; fill-opacity:1.0000; stroke:none;fill-rule:evenodd;"
d="M 14.7500,31.1750
14.0000,31.1750
14.0000,29.1750
14.7500,29.1750
Z" /> 
<path style="fill:#37CBCB; fill-opacity:1.0000; stroke:none;fill-rule:evenodd;"
d="M 15.8500,31.1750
15.1000,31.1750
15.1000,29.1750
15.8500,29.1750
Z" /> 
<path style="fill:#37CBCB; fill-opacity:1.0000; stroke:none;fill-rule:evenodd;"
d="M 16.9500,31.1750
16.2000,31.1750
16.2000,29.1750
16.9500,29.1750
Z" /> 
<path style="fill:#37CBCB; fill-opacity:1.0000; stroke:none;fill-rule:evenodd;"
d="M 18.0500,31.1750
17.3000,31.1750
17.3000,29.1750
18.0500,29.1750
Z" /> 
<path style="fill:#37CBCB; fill-opacity:1.0000; stroke:none;fill-rule:evenodd;"
d="M 19.1500,31.1750
18.4000,31.1750
18.4000,29.1750
19.1500,29.1750
Z" /> 
<path style="fill:#37CBCB; fill-opacity:1.0000; stroke:none;fill-rule:evenodd;"
d="M 20.2500,31.1750
19.5000,31.1750
19.5000,29.1750
20.2500,29.1750
Z" /> 
<path style="fill:#37CBCB; fill-opacity:1.0000; stroke:none;fill-rule:evenodd;"
d="M 21.3500,31.1750
20.6000,31.1750
20.6000,29.1750
21.3500,29.1750
Z" /> 
<path style="fill:#37CBCB; fill-opacity:1.0000; stroke:none;fill-rule:evenodd;"
d="M 22.4500,31.1750
21.7000,31.1750
21.7000,29.1750
22.4500,29.1750
Z" /> 
<path style="fill:#37CBCB; fill-opacity:1.0000; stroke:none;fill-rule:evenodd;"
d="M 23.5500,31.1750
22.8000,31.1750
22.8000,29.1750
23.5500,29.1750
Z" /> 
<path style="fill:#37CBCB; fill-opacity:1.0000; stroke:none;fill-rule:evenodd;"
d="M 24.6500,31.1750
23.9000,31.1750
23.9000,29.1750
24.6500,29.1750
Z" /> 
<path style="fill:#37CBCB; fill-opacity:1.0000; stroke:none;fill-rule:evenodd;"
d="M 25.7500,31.1750
25.0000,31.1750
25.0000,29.1750
25.7500,29.1750
Z" /> 
<path style="fill:#37CBCB; fill-opacity:1.0000; stroke:none;fill-rule:evenodd;"
d="M 26.8500,31.1750
26.1000,31.1750
26.1000,29.1750
26.8500,29.1750
Z" /> 
<path style="fill:#37CBCB; fill-opacity:1.0000; stroke:none;fill-rule:evenodd;"
d="M 27.9500,31.1750
27.2000,31.1750
27.2000,29.1750
27.9500,29.1750
Z" /> 
<path style="fill:#37CBCB; fill-opacity:1.0000; stroke:none;fill-rule:evenodd;"
d="M 31.1750,27.2000
31.1750,27.9500
29.1750,27.9500
29.1750,27.2000
Z" /> 
<path style="fill:#37CBCB; fill-opacity:1.0000; stroke:none;fill-rule:evenodd;"
d="M 31.1750,26.1000
31.1750,26.8500
29.1750,26.8500
29.1750,26.1000
Z" /> 
<path style="fill:#37CBCB; fill-opacity:1.0000; stroke:none;fill-rule:evenodd;"
d="M 31.1750,25.0000
31.1750,25.7500
29.1750,25.7500
29.1750,25.0000
Z" /> 
<path style="fill:#37CBCB; fill-opacity:1.0000; stroke:none;fill-rule:evenodd;"
d="M 31.1750,23.9000
31.1750,24.6500
29.1750,24.6500
29.1750,23.9000
Z" /> 
<path style="fill:#37CBCB; fill-opacity:1.0000; stroke:none;fill-rule:evenodd;"
d="M 31.1750,22.8000
31.1750,23.5500
29.1750,23.5500
29.1750,22.8000
Z" /> 
<path style="fill:#37CBCB; fill-opacity:1.0000; stroke:none;fill-rule:evenodd;"
d="M 31.1750,21.7000
31.1750,22.4500
29.1750,22.4500
29.1750,21.7000
Z" /> 
<path style="fill:#37CBCB; fill-opacity:1.0000; stroke:none;fill-rule:evenodd;"
d="M 31.1750,20.6000
31.1750,21.3500
29.1750,21.3500
29.1750,20.6000
Z" /> 
<path style="fill:#37CBCB; fill-opacity:1.0000; stroke:none;fill-rule:evenodd;"
d="M 31.1750,19.5000
31.1750,20.2500
29.1750,20.2500
29.1750,19.5000
Z" /> 
<path style="fill:#37CBCB; fill-opacity:1.0000; stroke:none;fill-rule:evenodd;"
d="M 31.1750,18.4000
31.1750,19.1500
29.1750,19.1500
29.1750,18.4000
Z" /> 
<path style="fill:#37CBCB; fill-opacity:1.0000; stroke:none;fill-rule:evenodd;"
d="M 31.1750,17.3000
31.1750,18.0500
29.1750,18.0500
29.1750,17.3000
Z" /> 
<path style="fill:#37CBCB; fill-opacity:1.0000; stroke:none;fill-rule:evenodd;"
d="M 31.1750,16.2000
31.1750,16.9500
29.1750,16.9500
29.1750,16.2000
Z" /> 
<path style="fill:#37CBCB; fill-opacity:1.0000; stroke:none;fill-rule:evenodd;"
d="M 31.1750,15.1000
31.1750,15.8500
29.1750,15.8500
29.1750,15.1000
Z" /> 
<path style="fill:#37CBCB; fill-opacity:1.0000; stroke:none;fill-rule:evenodd;"
d="M 31.1750,14.0000
31.1750,14.7500
29.1750,14.7500
29.1750,14.0000
Z" /> 
<path style="fill:#37CBCB; fill-opacity:1.0000; stroke:none;fill-rule:evenodd;"
d="M 31.1750,12.9000
31.1750,13.6500
29.1750,13.6500
29.1750,12.9000
Z" /> 
<path style="fill:#37CBCB; fill-opacity:1.0000; stroke:none;fill-rule:evenodd;"
d="M 31.1750,11.8000
31.1750,12.5500
29.1750,12.5500
29.1750,11.8000
Z" /> 
<path style="fill:#37CBCB; fill-opacity:1.0000; stroke:none;fill-rule:evenodd;"
d="M 31.1750,10.7000
31.1750,11.4500
29.1750,11.4500
29.1750,10.7000
Z" /> 
<path style="fill:#37CBCB; fill-opacity:1.0000; stroke:none;fill-rule:evenodd;"
d="M 31.1750,9.6000
31.1750,10.3500
29.1750,10.3500
29.1750,9.6000
Z" /> 
<path style="fill:#37CBCB; fill-opacity:1.0000; stroke:none;fill-rule:evenodd;"
d="M 31.1750,8.5000
31.1750,9.2500
29.1750,9.2500
29.1750,8.5000
Z" /> 
<path style="fill:#37CBCB; fill-opacity:1.0000; stroke:none;fill-rule:evenodd;"
d="M 31.1750,7.4000
31.1750,8.1500
29.1750,8.1500
29.1750,7.4000
Z" /> 
<path style="fill:#37CBCB; fill-opacity:1.0000; stroke:none;fill-rule:evenodd;"
d="M 31.1750,6.3000
31.1750,7.0500
29.1750,7.0500
29.1750,6.3000
Z" /> 
<path style="fill:#37CBCB; fill-opacity:1.0000; stroke:none;fill-rule:evenodd;"
d="M 31.1750,5.2000
31.1750,5.9500
29.1750,5.9500
29.1750,5.2000
Z" /> 
<path style="fill:#37CBCB; fill-opacity:1.0000; stroke:none;fill-rule:evenodd;"
d="M 31.1750,4.1000
31.1750,4.8500
29.1750,4.8500
29.1750,4.1000
Z" /> 
<path style="fill:#37CBCB; fill-opacity:1.0000; stroke:none;fill-rule:evenodd;"
d="M 27.2000,0.8750
27.9500,0.8750
27.9500,2.8750
27.2000,2.8750
Z" /> 
<path style="fill:#37CBCB; fill-opacity:1.0000; stroke:none;fill-rule:evenodd;"
d="M 26.1000,0.8750
26.8500,0.8750
26.8500,2.8750
26.1000,2.8750
Z" /> 
<path style="fill:#37CBCB; fill-opacity:1.0000; stroke:none;fill-rule:evenodd;"
d="M 25.0000,0.8750
25.7500,0.8750
25.7500,2.8750
25.0000,2.8750
Z" /> 
<path style="fill:#37CBCB; fill-opacity:1.0000; stroke:none;fill-rule:evenodd;"
d="M 23.9000,0.8750
24.6500,0.8750
24.6500,2.8750
23.9000,2.8750
Z" /> 
<path style="fill:#37CBCB; fill-opacity:1.0000; stroke:none;fill-rule:evenodd;"
d="M 22.8000,0.8750
23.5500,0.8750
23.5500,2.8750
22.8000,2.8750
Z" /> 
<path style="fill:#37CBCB; fill-opacity:1.0000; stroke:none;fill-rule:evenodd;"
d="M 21.7000,0.8750
22.4500,0.8750
22.4500,2.8750
21.7000,2.8750
Z" /> 
<path style="fill:#37CBCB; fill-opacity:1.0000; stroke:none;fill-rule:evenodd;"
d="M 20.6000,0.8750
21.3500,0.8750
21.3500,2.8750
20.6000,2.8750
Z" /> 
<path style="fill:#37CBCB; fill-opacity:1.0000; stroke:none;fill-rule:evenodd;"
d="M 19.5000,0.8750
20.2500,0.8750
20.2500,2.8750
19.5000,2.8750
Z" /> 
<path style="fill:#37CBCB; fill-opacity:1.0000; stroke:none;fill-rule:evenodd;"
d="M 18.4000,0.8750
19.1500,0.8750
19.1500,2.8750
18.4000,2.8750
Z" /> 
<path style="fill:#37CBCB; fill-opacity:1.0000; stroke:none;fill-rule:evenodd;"
d="M 17.3000,0.8750
18.0500,0.8750
18.0500,2.8750
17.3000,2.8750
Z" /> 
<path style="fill:#37CBCB; fill-opacity:1.0000; stroke:none;fill-rule:evenodd;"
d="M 16.2000,0.8750
16.9500,0.8750
16.9500,2.8750
16.2000,2.8750
Z" /> 
<path style="fill:#37CBCB; fill-opacity:1.0000; stroke:none;fill-rule:evenodd;"
d="M 15.1000,0.8750
15.8500,0.8750
15.8500,2.8750
15.1000,2.8750
Z" /> 
<path style="fill:#37CBCB; fill-opacity:1.0000; stroke:none;fill-rule:evenodd;"
d="M 14.0000,0.8750
14.7500,0.8750
14.7500,2.8750
14.0000,2.8750
Z" /> 
<path style="fill:#37CBCB; fill-opacity:1.0000; stroke:none;fill-rule:evenodd;"
d="M 12.9000,0.8750
13.6500,0.8750
13.6500,2.8750
12.9000,2.8750
Z" /> 
<path style="fill:#37CBCB; fill-opacity:1.0000; stroke:none;fill-rule:evenodd;"
d="M 11.8000,0.8750
12.5500,0.8750
12.5500,2.8750
11.8000,2.8750
Z" /> 
<path style="fill:#37CBCB; fill-opacity:1.0000; stroke:none;fill-rule:evenodd;"
d="M 10.7000,0.8750
11.4500,0.8750
11.4500,2.8750
10.7000,2.8750
Z" /> 
<path style="fill:#37CBCB; fill-opacity:1.0000; stroke:none;fill-rule:evenodd;"
d="M 9.6000,0.8750
10.3500,0.8750
10.3500,2.8750
9.6000,2.8750
Z" /> 
<path style="fill:#37CBCB; fill-opacity:1.0000; stroke:none;fill-rule:evenodd;"
d="M 8.5000,0.8750
9.2500,0.8750
9.2500,2.8750
8.5000,2.8750
Z" /> 
<path style="fill:#37CBCB; fill-opacity:1.0000; stroke:none;fill-rule:evenodd;"
d="M 7.4000,0.8750
8.1500,0.8750
8.1500,2.8750
7.4000,2.8750
Z" /> 
<path style="fill:#37CBCB; fill-opacity:1.0000; stroke:none;fill-rule:evenodd;"
d="M 6.3000,0.8750
7.0500,0.8750
7.0500,2.8750
6.3000,2.8750
Z" /> 
<path style="fill:#37CBCB; fill-opacity:1.0000; stroke:none;fill-rule:evenodd;"
d="M 5.2000,0.8750
5.9500,0.8750
5.9500,2.8750
5.2000,2.8750
Z" /> 
<path style="fill:#37CBCB; fill-opacity:1.0000; stroke:none;fill-rule:evenodd;"
d="M 4.1000,0.8750
4.8500,0.8750
4.8500,2.8750
4.1000,2.8750
Z" /> 
<path style="fill:#37CBCB; fill-opacity:1.0000; stroke:none;fill-rule:evenodd;"
d="M 0.2424,0.9495
0.9495,0.2424
3.0708,2.3637
2.3637,3.0708
Z" /> 
<path style="fill:#37CBCB; fill-opacity:1.0000; stroke:none;fill-rule:evenodd;"
d="M 0.9495,31.8076
0.2424,31.1005
2.3637,28.9792
3.0708,29.6863
Z" /> 
<path style="fill:#37CBCB; fill-opacity:1.0000; stroke:none;fill-rule:evenodd;"
d="M 29.6863,3.0708
28.9792,2.3637
31.1005,0.2424
31.8076,0.9495
Z" /> 
<path style="fill:#37CBCB; fill-opacity:1.0000; stroke:none;fill-rule:evenodd;"
d="M 31.8076,31.1005
31.1005,31.8076
28.9792,29.6863
29.6863,28.9792
Z" /> 
<path style="fill:#279B00; fill-opacity:0.4000; stroke:none;fill-rule:evenodd;"
d="M 0.8750,4.1000
2.8750,4.1000
2.8750,4.8500
0.8750,4.8500
Z" /> 
<path style="fill:#279B00; fill-opacity:0.4000; stroke:none;fill-rule:evenodd;"
d="M 0.8750,5.9500
0.8750,5.2000
2.8750,5.2000
2.8750,5.9500
Z" /> 
<path style="fill:#279B00; fill-opacity:0.4000; stroke:none;fill-rule:evenodd;"
d="M 0.8750,7.0500
0.8750,6.3000
2.8750,6.3000
2.8750,7.0500
Z" /> 
<path style="fill:#279B00; fill-opacity:0.4000; stroke:none;fill-rule:evenodd;"
d="M 0.8750,8.1500
0.8750,7.4000
2.8750,7.4000
2.8750,8.1500
Z" /> 
<path style="fill:#279B00; fill-opacity:0.4000; stroke:none;fill-rule:evenodd;"
d="M 0.8750,9.2500
0.8750,8.5000
2.8750,8.5000
2.8750,9.2500
Z" /> 
<path style="fill:#279B00; fill-opacity:0.4000; stroke:none;fill-rule:evenodd;"
d="M 0.8750,10.3500
0.8750,9.6000
2.8750,9.6000
2.8750,10.3500
Z" /> 
<path style="fill:#279B00; fill-opacity:0.4000; stroke:none;fill-rule:evenodd;"
d="M 0.8750,11.4500
0.8750,10.7000
2.8750,10.7000
2.8750,11.4500
Z" /> 
<path style="fill:#279B00; fill-opacity:0.4000; stroke:none;fill-rule:evenodd;"
d="M 0.8750,12.5500
0.8750,11.8000
2.8750,11.8000
2.8750,12.5500
Z" /> 
<path style="fill:#279B00; fill-opacity:0.4000; stroke:none;fill-rule:evenodd;"
d="M 0.8750,13.6500
0.8750,12.9000
2.8750,12.9000
2.8750,13.6500
Z" /> 
<path style="fill:#279B00; fill-opacity:0.4000; stroke:none;fill-rule:evenodd;"
d="M 0.8750,14.7500
0.8750,14.0000
2.8750,14.0000
2.8750,14.7500
Z" /> 
<path style="fill:#279B00; fill-opacity:0.4000; stroke:none;fill-rule:evenodd;"
d="M 0.8750,15.8500
0.8750,15.1000
2.8750,15.1000
2.8750,15.8500
Z" /> 
<path style="fill:#279B00; fill-opacity:0.4000; stroke:none;fill-rule:evenodd;"
d="M 0.8750,16.9500
0.8750,16.2000
2.8750,16.2000
2.8750,16.9500
Z" /> 
<path style="fill:#279B00; fill-opacity:0.4000; stroke:none;fill-rule:evenodd;"
d="M 0.8750,18.0500
0.8750,17.3000
2.8750,17.3000
2.8750,18.0500
Z" /> 
<path style="fill:#279B00; fill-opacity:0.4000; stroke:none;fill-rule:evenodd;"
d="M 0.8750,19.1500
0.8750,18.4000
2.8750,18.4000
2.8750,19.1500
Z" /> 
<path style="fill:#279B00; fill-opacity:0.4000; stroke:none;fill-rule:evenodd;"
d="M 0.8750,20.2500
0.8750,19.5000
2.8750,19.5000
2.8750,20.2500
Z" /> 
<path style="fill:#279B00; fill-opacity:0.4000; stroke:none;fill-rule:evenodd;"
d="M 0.8750,21.3500
0.8750,20.6000
2.8750,20.6000
2.8750,21.3500
Z" /> 
<path style="fill:#279B00; fill-opacity:0.4000; stroke:none;fill-rule:evenodd;"
d="M 0.8750,22.4500
0.8750,21.7000
2.8750,21.7000
2.8750,22.4500
Z" /> 
<path style="fill:#279B00; fill-opacity:0.4000; stroke:none;fill-rule:evenodd;"
d="M 0.8750,23.5500
0.8750,22.8000
2.8750,22.8000
2.8750,23.5500
Z" /> 
<path style="fill:#279B00; fill-opacity:0.4000; stroke:none;fill-rule:evenodd;"
d="M 0.8750,24.6500
0.8750,23.9000
2.8750,23.9000
2.8750,24.6500
Z" /> 
<path style="fill:#279B00; fill-opacity:0.4000; stroke:none;fill-rule:evenodd;"
d="M 0.8750,25.7500
0.8750,25.0000
2.8750,25.0000
2.8750,25.7500
Z" /> 
<path style="fill:#279B00; fill-opacity:0.4000; stroke:none;fill-rule:evenodd;"
d="M 0.8750,26.8500
0.8750,26.1000
2.8750,26.1000
2.8750,26.8500
Z" /> 
<path style="fill:#279B00; fill-opacity:0.4000; stroke:none;fill-rule:evenodd;"
d="M 0.8750,27.9500
0.8750,27.2000
2.8750,27.2000
2.8750,27.9500
Z" /> 
<path style="fill:#279B00; fill-opacity:0.4000; stroke:none;fill-rule:evenodd;"
d="M 4.8500,31.1750
4.1000,31.1750
4.1000,29.1750
4.8500,29.1750
Z" /> 
<path style="fill:#279B00; fill-opacity:0.4000; stroke:none;fill-rule:evenodd;"
d="M 5.9500,31.1750
5.2000,31.1750
5.2000,29.1750
5.9500,29.1750
Z" /> 
<path style="fill:#279B00; fill-opacity:0.4000; stroke:none;fill-rule:evenodd;"
d="M 7.0500,31.1750
6.3000,31.1750
6.3000,29.1750
7.0500,29.1750
Z" /> 
<path style="fill:#279B00; fill-opacity:0.4000; stroke:none;fill-rule:evenodd;"
d="M 8.1500,31.1750
7.4000,31.1750
7.4000,29.1750
8.1500,29.1750
Z" /> 
<path style="fill:#279B00; fill-opacity:0.4000; stroke:none;fill-rule:evenodd;"
d="M 9.2500,31.1750
8.5000,31.1750
8.5000,29.1750
9.2500,29.1750
Z" /> 
<path style="fill:#279B00; fill-opacity:0.4000; stroke:none;fill-rule:evenodd;"
d="M 10.3500,31.1750
9.6000,31.1750
9.6000,29.1750
10.3500,29.1750
Z" /> 
<path style="fill:#279B00; fill-opacity:0.4000; stroke:none;fill-rule:evenodd;"
d="M 11.4500,31.1750
10.7000,31.1750
10.7000,29.1750
11.4500,29.1750
Z" /> 
<path style="fill:#279B00; fill-opacity:0.4000; stroke:none;fill-rule:evenodd;"
d="M 12.5500,31.1750
11.8000,31.1750
11.8000,29.1750
12.5500,29.1750
Z" /> 
<path style="fill:#279B00; fill-opacity:0.4000; stroke:none;fill-rule:evenodd;"
d="M 13.6500,31.1750
12.9000,31.1750
12.9000,29.1750
13.6500,29.1750
Z" /> 
<path style="fill:#279B00; fill-opacity:0.4000; stroke:none;fill-rule:evenodd;"
d="M 14.7500,31.1750
14.0000,31.1750
14.0000,29.1750
14.7500,29.1750
Z" /> 
<path style="fill:#279B00; fill-opacity:0.4000; stroke:none;fill-rule:evenodd;"
d="M 15.8500,31.1750
15.1000,31.1750
15.1000,29.1750
15.8500,29.1750
Z" /> 
<path style="fill:#279B00; fill-opacity:0.4000; stroke:none;fill-rule:evenodd;"
d="M 16.9500,31.1750
16.2000,31.1750
16.2000,29.1750
16.9500,29.1750
Z" /> 
<path style="fill:#279B00; fill-opacity:0.4000; stroke:none;fill-rule:evenodd;"
d="M 18.0500,31.1750
17.3000,31.1750
17.3000,29.1750
18.0500,29.1750
Z" /> 
<path style="fill:#279B00; fill-opacity:0.4000; stroke:none;fill-rule:evenodd;"
d="M 19.1500,31.1750
18.4000,31.1750
18.4000,29.1750
19.1500,29.1750
Z" /> 
<path style="fill:#279B00; fill-opacity:0.4000; stroke:none;fill-rule:evenodd;"
d="M 20.2500,31.1750
19.5000,31.1750
19.5000,29.1750
20.2500,29.1750
Z" /> 
<path style="fill:#279B00; fill-opacity:0.4000; stroke:none;fill-rule:evenodd;"
d="M 21.3500,31.1750
20.6000,31.1750
20.6000,29.1750
21.3500,29.1750
Z" /> 
<path style="fill:#279B00; fill-opacity:0.4000; stroke:none;fill-rule:evenodd;"
d="M 22.4500,31.1750
21.7000,31.1750
21.7000,29.1750
22.4500,29.1750
Z" /> 
<path style="fill:#279B00; fill-opacity:0.4000; stroke:none;fill-rule:evenodd;"
d="M 23.5500,31.1750
22.8000,31.1750
22.8000,29.1750
23.5500,29.1750
Z" /> 
<path style="fill:#279B00; fill-opacity:0.4000; stroke:none;fill-rule:evenodd;"
d="M 24.6500,31.1750
23.9000,31.1750
23.9000,29.1750
24.6500,29.1750
Z" /> 
<path style="fill:#279B00; fill-opacity:0.4000; stroke:none;fill-rule:evenodd;"
d="M 25.7500,31.1750
25.0000,31.1750
25.0000,29.1750
25.7500,29.1750
Z" /> 
<path style="fill:#279B00; fill-opacity:0.4000; stroke:none;fill-rule:evenodd;"
d="M 26.8500,31.1750
26.1000,31.1750
26.1000,29.1750
26.8500,29.1750
Z" /> 
<path style="fill:#279B00; fill-opacity:0.4000; stroke:none;fill-rule:evenodd;"
d="M 27.9500,31.1750
27.2000,31.1750
27.2000,29.1750
27.9500,29.1750
Z" /> 
<path style="fill:#279B00; fill-opacity:0.4000; stroke:none;fill-rule:evenodd;"
d="M 31.1750,27.2000
31.1750,27.9500
29.1750,27.9500
29.1750,27.2000
Z" /> 
<path style="fill:#279B00; fill-opacity:0.4000; stroke:none;fill-rule:evenodd;"
d="M 31.1750,26.1000
31.1750,26.8500
29.1750,26.8500
29.1750,26.1000
Z" /> 
<path style="fill:#279B00; fill-opacity:0.4000; stroke:none;fill-rule:evenodd;"
d="M 31.1750,25.0000
31.1750,25.7500
29.1750,25.7500
29.1750,25.0000
Z" /> 
<path style="fill:#279B00; fill-opacity:0.4000; stroke:none;fill-rule:evenodd;"
d="M 31.1750,23.9000
31.1750,24.6500
29.1750,24.6500
29.1750,23.9000
Z" /> 
<path style="fill:#279B00; fill-opacity:0.4000; stroke:none;fill-rule:evenodd;"
d="M 31.1750,22.8000
31.1750,23.5500
29.1750,23.5500
29.1750,22.8000
Z" /> 
<path style="fill:#279B00; fill-opacity:0.4000; stroke:none;fill-rule:evenodd;"
d="M 31.1750,21.7000
31.1750,22.4500
29.1750,22.4500
29.1750,21.7000
Z" /> 
<path style="fill:#279B00; fill-opacity:0.4000; stroke:none;fill-rule:evenodd;"
d="M 31.1750,20.6000
31.1750,21.3500
29.1750,21.3500
29.1750,20.6000
Z" /> 
<path style="fill:#279B00; fill-opacity:0.4000; stroke:none;fill-rule:evenodd;"
d="M 31.1750,19.5000
31.1750,20.2500
29.1750,20.2500
29.1750,19.5000
Z" /> 
<path style="fill:#279B00; fill-opacity:0.4000; stroke:none;fill-rule:evenodd;"
d="M 31.1750,18.4000
31.1750,19.1500
29.1750,19.1500
29.1750,18.4000
Z" /> 
<path style="fill:#279B00; fill-opacity:0.4000; stroke:none;fill-rule:evenodd;"
d="M 31.1750,17.3000
31.1750,18.0500
29.1750,18.0500
29.1750,17.3000
Z" /> 
<path style="fill:#279B00; fill-opacity:0.4000; stroke:none;fill-rule:evenodd;"
d="M 31.1750,16.2000
31.1750,16.9500
29.1750,16.9500
29.1750,16.2000
Z" /> 
<path style="fill:#279B00; fill-opacity:0.4000; stroke:none;fill-rule:evenodd;"
d="M 31.1750,15.1000
31.1750,15.8500
29.1750,15.8500
29.1750,15.1000
Z" /> 
<path style="fill:#279B00; fill-opacity:0.4000; stroke:none;fill-rule:evenodd;"
d="M 31.1750,14.0000
31.1750,14.7500
29.1750,14.7500
29.1750,14.0000
Z" /> 
<path style="fill:#279B00; fill-opacity:0.4000; stroke:none;fill-rule:evenodd;"
d="M 31.1750,12.9000
31.1750,13.6500
29.1750,13.6500
29.1750,12.9000
Z" /> 
<path style="fill:#279B00; fill-opacity:0.4000; stroke:none;fill-rule:evenodd;"
d="M 31.1750,11.8000
31.1750,12.5500
29.1750,12.5500
29.1750,11.8000
Z" /> 
<path style="fill:#279B00; fill-opacity:0.4000; stroke:none;fill-rule:evenodd;"
d="M 31.1750,10.7000
31.1750,11.4500
29.1750,11.4500
29.1750,10.7000
Z" /> 
<path style="fill:#279B00; fill-opacity:0.4000; stroke:none;fill-rule:evenodd;"
d="M 31.1750,9.6000
31.1750,10.3500
29.1750,10.3500
29.1750,9.6000
Z" /> 
<path style="fill:#279B00; fill-opacity:0.4000; stroke:none;fill-rule:evenodd;"
d="M 31.1750,8.5000
31.1750,9.2500
29.1750,9.2500
29.1750,8.5000
Z" /> 
<path style="fill:#279B00; fill-opacity:0.4000; stroke:none;fill-rule:evenodd;"
d="M 31.1750,7.4000
31.1750,8.1500
29.1750,8.1500
29.1750,7.4000
Z" /> 
<path style="fill:#279B00; fill-opacity:0.4000; stroke:none;fill-rule:evenodd;"
d="M 31.1750,6.3000
31.1750,7.0500
29.1750,7.0500
29.1750,6.3000
Z" /> 
<path style="fill:#279B00; fill-opacity:0.4000; stroke:none;fill-rule:evenodd;"
d="M 31.1750,5.2000
31.1750,5.9500
29.1750,5.9500
29.1750,5.2000
Z" /> 
<path style="fill:#279B00; fill-opacity:0.4000; stroke:none;fill-rule:evenodd;"
d="M 31.1750,4.1000
31.1750,4.8500
29.1750,4.8500
29.1750,4.1000
Z" /> 
<path style="fill:#279B00; fill-opacity:0.4000; stroke:none;fill-rule:evenodd;"
d="M 27.2000,0.8750
27.9500,0.8750
27.9500,2.8750
27.2000,2.8750
Z" /> 
<path style="fill:#279B00; fill-opacity:0.4000; stroke:none;fill-rule:evenodd;"
d="M 26.1000,0.8750
26.8500,0.8750
26.8500,2.8750
26.1000,2.8750
Z" /> 
<path style="fill:#279B00; fill-opacity:0.4000; stroke:none;fill-rule:evenodd;"
d="M 25.0000,0.8750
25.7500,0.8750
25.7500,2.8750
25.0000,2.8750
Z" /> 
<path style="fill:#279B00; fill-opacity:0.4000; stroke:none;fill-rule:evenodd;"
d="M 23.9000,0.8750
24.6500,0.8750
24.6500,2.8750
23.9000,2.8750
Z" /> 
<path style="fill:#279B00; fill-opacity:0.4000; stroke:none;fill-rule:evenodd;"
d="M 22.8000,0.8750
23.5500,0.8750
23.5500,2.8750
22.8000,2.8750
Z" /> 
<path style="fill:#279B00; fill-opacity:0.4000; stroke:none;fill-rule:evenodd;"
d="M 21.7000,0.8750
22.4500,0.8750
22.4500,2.8750
21.7000,2.8750
Z" /> 
<path style="fill:#279B00; fill-opacity:0.4000; stroke:none;fill-rule:evenodd;"
d="M 20.6000,0.8750
21.3500,0.8750
21.3500,2.8750
20.6000,2.8750
Z" /> 
<path style="fill:#279B00; fill-opacity:0.4000; stroke:none;fill-rule:evenodd;"
d="M 19.5000,0.8750
20.2500,0.8750
20.2500,2.8750
19.5000,2.8750
Z" /> 
<path style="fill:#279B00; fill-opacity:0.4000; stroke:none;fill-rule:evenodd;"
d="M 18.4000,0.8750
19.1500,0.8750
19.1500,2.8750
18.4000,2.8750
Z" /> 
<path style="fill:#279B00; fill-opacity:0.4000; stroke:none;fill-rule:evenodd;"
d="M 17.3000,0.8750
18.0500,0.8750
18.0500,2.8750
17.3000,2.8750
Z" /> 
<path style="fill:#279B00; fill-opacity:0.4000; stroke:none;fill-rule:evenodd;"
d="M 16.2000,0.8750
16.9500,0.8750
16.9500,2.8750
16.2000,2.8750
Z" /> 
<path style="fill:#279B00; fill-opacity:0.4000; stroke:none;fill-rule:evenodd;"
d="M 15.1000,0.8750
15.8500,0.8750
15.8500,2.8750
15.1000,2.8750
Z" /> 
<path style="fill:#279B00; fill-opacity:0.4000; stroke:none;fill-rule:evenodd;"
d="M 14.0000,0.8750
14.7500,0.8750
14.7500,2.8750
14.0000,2.8750
Z" /> 
<path style="fill:#279B00; fill-opacity:0.4000; stroke:none;fill-rule:evenodd;"
d="M 12.9000,0.8750
13.6500,0.8750
13.6500,2.8750
12.9000,2.8750
Z" /> 
<path style="fill:#279B00; fill-opacity:0.4000; stroke:none;fill-rule:evenodd;"
d="M 11.8000,0.8750
12.5500,0.8750
12.5500,2.8750
11.8000,2.8750
Z" /> 
<path style="fill:#279B00; fill-opacity:0.4000; stroke:none;fill-rule:evenodd;"
d="M 10.7000,0.8750
11.4500,0.8750
11.4500,2.8750
10.7000,2.8750
Z" /> 
<path style="fill:#279B00; fill-opacity:0.4000; stroke:none;fill-rule:evenodd;"
d="M 9.6000,0.8750
10.3500,0.8750
10.3500,2.8750
9.6000,2.8750
Z" /> 
<path style="fill:#279B00; fill-opacity:0.4000; stroke:none;fill-rule:evenodd;"
d="M 8.5000,0.8750
9.2500,0.8750
9.2500,2.8750
8.5000,2.8750
Z" /> 
<path style="fill:#279B00; fill-opacity:0.4000; stroke:none;fill-rule:evenodd;"
d="M 7.4000,0.8750
8.1500,0.8750
8.1500,2.8750
7.4000,2.8750
Z" /> 
<path style="fill:#279B00; fill-opacity:0.4000; stroke:none;fill-rule:evenodd;"
d="M 6.3000,0.8750
7.0500,0.8750
7.0500,2.8750
6.3000,2.8750
Z" /> 
<path style="fill:#279B00; fill-opacity:0.4000; stroke:none;fill-rule:evenodd;"
d="M 5.2000,0.8750
5.9500,0.8750
5.9500,2.8750
5.2000,2.8750
Z" /> 
<path style="fill:#279B00; fill-opacity:0.4000; stroke:none;fill-rule:evenodd;"
d="M 4.1000,0.8750
4.8500,0.8750
4.8500,2.8750
4.1000,2.8750
Z" /> 
<path style="fill:#279B00; fill-opacity:0.4000; stroke:none;fill-rule:evenodd;"
d="M 0.2424,0.9495
0.9495,0.2424
3.0708,2.3637
2.3637,3.0708
Z" /> 
<path style="fill:#279B00; fill-opacity:0.4000; stroke:none;fill-rule:evenodd;"
d="M 0.9495,31.8076
0.2424,31.1005
2.3637,28.9792
3.0708,29.6863
Z" /> 
<path style="fill:#279B00; fill-opacity:0.4000; stroke:none;fill-rule:evenodd;"
d="M 29.6863,3.0708
28.9792,2.3637
31.1005,0.2424
31.8076,0.9495
Z" /> 
<path style="fill:#279B00; fill-opacity:0.4000; stroke:none;fill-rule:evenodd;"
d="M 31.8076,31.1005
31.1005,31.8076
28.9792,29.6863
29.6863,28.9792
Z" /> 
<path style="fill:#4A5F65; fill-opacity:0.9000; stroke:none;fill-rule:evenodd;"
d="M 0.8750,4.1000
2.8750,4.1000
2.8750,4.8500
0.8750,4.8500
Z" /> 
<path style="fill:#4A5F65; fill-opacity:0.9000; stroke:none;fill-rule:evenodd;"
d="M 0.8750,5.9500
0.8750,5.2000
2.8750,5.2000
2.8750,5.9500
Z" /> 
<path style="fill:#4A5F65; fill-opacity:0.9000; stroke:none;fill-rule:evenodd;"
d="M 0.8750,7.0500
0.8750,6.3000
2.8750,6.3000
2.8750,7.0500
Z" /> 
<path style="fill:#4A5F65; fill-opacity:0.9000; stroke:none;fill-rule:evenodd;"
d="M 0.8750,8.1500
0.8750,7.4000
2.8750,7.4000
2.8750,8.1500
Z" /> 
<path style="fill:#4A5F65; fill-opacity:0.9000; stroke:none;fill-rule:evenodd;"
d="M 0.8750,9.2500
0.8750,8.5000
2.8750,8.5000
2.8750,9.2500
Z" /> 
<path style="fill:#4A5F65; fill-opacity:0.9000; stroke:none;fill-rule:evenodd;"
d="M 0.8750,10.3500
0.8750,9.6000
2.8750,9.6000
2.8750,10.3500
Z" /> 
<path style="fill:#4A5F65; fill-opacity:0.9000; stroke:none;fill-rule:evenodd;"
d="M 0.8750,11.4500
0.8750,10.7000
2.8750,10.7000
2.8750,11.4500
Z" /> 
<path style="fill:#4A5F65; fill-opacity:0.9000; stroke:none;fill-rule:evenodd;"
d="M 0.8750,12.5500
0.8750,11.8000
2.8750,11.8000
2.8750,12.5500
Z" /> 
<path style="fill:#4A5F65; fill-opacity:0.9000; stroke:none;fill-rule:evenodd;"
d="M 0.8750,13.6500
0.8750,12.9000
2.8750,12.9000
2.8750,13.6500
Z" /> 
<path style="fill:#4A5F65; fill-opacity:0.9000; stroke:none;fill-rule:evenodd;"
d="M 0.8750,14.7500
0.8750,14.0000
2.8750,14.0000
2.8750,14.7500
Z" /> 
<path style="fill:#4A5F65; fill-opacity:0.9000; stroke:none;fill-rule:evenodd;"
d="M 0.8750,15.8500
0.8750,15.1000
2.8750,15.1000
2.8750,15.8500
Z" /> 
<path style="fill:#4A5F65; fill-opacity:0.9000; stroke:none;fill-rule:evenodd;"
d="M 0.8750,16.9500
0.8750,16.2000
2.8750,16.2000
2.8750,16.9500
Z" /> 
<path style="fill:#4A5F65; fill-opacity:0.9000; stroke:none;fill-rule:evenodd;"
d="M 0.8750,18.0500
0.8750,17.3000
2.8750,17.3000
2.8750,18.0500
Z" /> 
<path style="fill:#4A5F65; fill-opacity:0.9000; stroke:none;fill-rule:evenodd;"
d="M 0.8750,19.1500
0.8750,18.4000
2.8750,18.4000
2.8750,19.1500
Z" /> 
<path style="fill:#4A5F65; fill-opacity:0.9000; stroke:none;fill-rule:evenodd;"
d="M 0.8750,20.2500
0.8750,19.5000
2.8750,19.5000
2.8750,20.2500
Z" /> 
<path style="fill:#4A5F65; fill-opacity:0.9000; stroke:none;fill-rule:evenodd;"
d="M 0.8750,21.3500
0.8750,20.6000
2.8750,20.6000
2.8750,21.3500
Z" /> 
<path style="fill:#4A5F65; fill-opacity:0.9000; stroke:none;fill-rule:evenodd;"
d="M 0.8750,22.4500
0.8750,21.7000
2.8750,21.7000
2.8750,22.4500
Z" /> 
<path style="fill:#4A5F65; fill-opacity:0.9000; stroke:none;fill-rule:evenodd;"
d="M 0.8750,23.5500
0.8750,22.8000
2.8750,22.8000
2.8750,23.5500
Z" /> 
<path style="fill:#4A5F65; fill-opacity:0.9000; stroke:none;fill-rule:evenodd;"
d="M 0.8750,24.6500
0.8750,23.9000
2.8750,23.9000
2.8750,24.6500
Z" /> 
<path style="fill:#4A5F65; fill-opacity:0.9000; stroke:none;fill-rule:evenodd;"
d="M 0.8750,25.7500
0.8750,25.0000
2.8750,25.0000
2.8750,25.7500
Z" /> 
<path style="fill:#4A5F65; fill-opacity:0.9000; stroke:none;fill-rule:evenodd;"
d="M 0.8750,26.8500
0.8750,26.1000
2.8750,26.1000
2.8750,26.8500
Z" /> 
<path style="fill:#4A5F65; fill-opacity:0.9000; stroke:none;fill-rule:evenodd;"
d="M 0.8750,27.9500
0.8750,27.2000
2.8750,27.2000
2.8750,27.9500
Z" /> 
<path style="fill:#4A5F65; fill-opacity:0.9000; stroke:none;fill-rule:evenodd;"
d="M 4.8500,31.1750
4.1000,31.1750
4.1000,29.1750
4.8500,29.1750
Z" /> 
<path style="fill:#4A5F65; fill-opacity:0.9000; stroke:none;fill-rule:evenodd;"
d="M 5.9500,31.1750
5.2000,31.1750
5.2000,29.1750
5.9500,29.1750
Z" /> 
<path style="fill:#4A5F65; fill-opacity:0.9000; stroke:none;fill-rule:evenodd;"
d="M 7.0500,31.1750
6.3000,31.1750
6.3000,29.1750
7.0500,29.1750
Z" /> 
<path style="fill:#4A5F65; fill-opacity:0.9000; stroke:none;fill-rule:evenodd;"
d="M 8.1500,31.1750
7.4000,31.1750
7.4000,29.1750
8.1500,29.1750
Z" /> 
<path style="fill:#4A5F65; fill-opacity:0.9000; stroke:none;fill-rule:evenodd;"
d="M 9.2500,31.1750
8.5000,31.1750
8.5000,29.1750
9.2500,29.1750
Z" /> 
<path style="fill:#4A5F65; fill-opacity:0.9000; stroke:none;fill-rule:evenodd;"
d="M 10.3500,31.1750
9.6000,31.1750
9.6000,29.1750
10.3500,29.1750
Z" /> 
<path style="fill:#4A5F65; fill-opacity:0.9000; stroke:none;fill-rule:evenodd;"
d="M 11.4500,31.1750
10.7000,31.1750
10.7000,29.1750
11.4500,29.1750
Z" /> 
<path style="fill:#4A5F65; fill-opacity:0.9000; stroke:none;fill-rule:evenodd;"
d="M 12.5500,31.1750
11.8000,31.1750
11.8000,29.1750
12.5500,29.1750
Z" /> 
<path style="fill:#4A5F65; fill-opacity:0.9000; stroke:none;fill-rule:evenodd;"
d="M 13.6500,31.1750
12.9000,31.1750
12.9000,29.1750
13.6500,29.1750
Z" /> 
<path style="fill:#4A5F65; fill-opacity:0.9000; stroke:none;fill-rule:evenodd;"
d="M 14.7500,31.1750
14.0000,31.1750
14.0000,29.1750
14.7500,29.1750
Z" /> 
<path style="fill:#4A5F65; fill-opacity:0.9000; stroke:none;fill-rule:evenodd;"
d="M 15.8500,31.1750
15.1000,31.1750
15.1000,29.1750
15.8500,29.1750
Z" /> 
<path style="fill:#4A5F65; fill-opacity:0.9000; stroke:none;fill-rule:evenodd;"
d="M 16.9500,31.1750
16.2000,31.1750
16.2000,29.1750
16.9500,29.1750
Z" /> 
<path style="fill:#4A5F65; fill-opacity:0.9000; stroke:none;fill-rule:evenodd;"
d="M 18.0500,31.1750
17.3000,31.1750
17.3000,29.1750
18.0500,29.1750
Z" /> 
<path style="fill:#4A5F65; fill-opacity:0.9000; stroke:none;fill-rule:evenodd;"
d="M 19.1500,31.1750
18.4000,31.1750
18.4000,29.1750
19.1500,29.1750
Z" /> 
<path style="fill:#4A5F65; fill-opacity:0.9000; stroke:none;fill-rule:evenodd;"
d="M 20.2500,31.1750
19.5000,31.1750
19.5000,29.1750
20.2500,29.1750
Z" /> 
<path style="fill:#4A5F65; fill-opacity:0.9000; stroke:none;fill-rule:evenodd;"
d="M 21.3500,31.1750
20.6000,31.1750
20.6000,29.1750
21.3500,29.1750
Z" /> 
<path style="fill:#4A5F65; fill-opacity:0.9000; stroke:none;fill-rule:evenodd;"
d="M 22.4500,31.1750
21.7000,31.1750
21.7000,29.1750
22.4500,29.1750
Z" /> 
<path style="fill:#4A5F65; fill-opacity:0.9000; stroke:none;fill-rule:evenodd;"
d="M 23.5500,31.1750
22.8000,31.1750
22.8000,29.1750
23.5500,29.1750
Z" /> 
<path style="fill:#4A5F65; fill-opacity:0.9000; stroke:none;fill-rule:evenodd;"
d="M 24.6500,31.1750
23.9000,31.1750
23.9000,29.1750
24.6500,29.1750
Z" /> 
<path style="fill:#4A5F65; fill-opacity:0.9000; stroke:none;fill-rule:evenodd;"
d="M 25.7500,31.1750
25.0000,31.1750
25.0000,29.1750
25.7500,29.1750
Z" /> 
<path style="fill:#4A5F65; fill-opacity:0.9000; stroke:none;fill-rule:evenodd;"
d="M 26.8500,31.1750
26.1000,31.1750
26.1000,29.1750
26.8500,29.1750
Z" /> 
<path style="fill:#4A5F65; fill-opacity:0.9000; stroke:none;fill-rule:evenodd;"
d="M 27.9500,31.1750
27.2000,31.1750
27.2000,29.1750
27.9500,29.1750
Z" /> 
<path style="fill:#4A5F65; fill-opacity:0.9000; stroke:none;fill-rule:evenodd;"
d="M 31.1750,27.2000
31.1750,27.9500
29.1750,27.9500
29.1750,27.2000
Z" /> 
<path style="fill:#4A5F65; fill-opacity:0.9000; stroke:none;fill-rule:evenodd;"
d="M 31.1750,26.1000
31.1750,26.8500
29.1750,26.8500
29.1750,26.1000
Z" /> 
<path style="fill:#4A5F65; fill-opacity:0.9000; stroke:none;fill-rule:evenodd;"
d="M 31.1750,25.0000
31.1750,25.7500
29.1750,25.7500
29.1750,25.0000
Z" /> 
<path style="fill:#4A5F65; fill-opacity:0.9000; stroke:none;fill-rule:evenodd;"
d="M 31.1750,23.9000
31.1750,24.6500
29.1750,24.6500
29.1750,23.9000
Z" /> 
<path style="fill:#4A5F65; fill-opacity:0.9000; stroke:none;fill-rule:evenodd;"
d="M 31.1750,22.8000
31.1750,23.5500
29.1750,23.5500
29.1750,22.8000
Z" /> 
<path style="fill:#4A5F65; fill-opacity:0.9000; stroke:none;fill-rule:evenodd;"
d="M 31.1750,21.7000
31.1750,22.4500
29.1750,22.4500
29.1750,21.7000
Z" /> 
<path style="fill:#4A5F65; fill-opacity:0.9000; stroke:none;fill-rule:evenodd;"
d="M 31.1750,20.6000
31.1750,21.3500
29.1750,21.3500
29.1750,20.6000
Z" /> 
<path style="fill:#4A5F65; fill-opacity:0.9000; stroke:none;fill-rule:evenodd;"
d="M 31.1750,19.5000
31.1750,20.2500
29.1750,20.2500
29.1750,19.5000
Z" /> 
<path style="fill:#4A5F65; fill-opacity:0.9000; stroke:none;fill-rule:evenodd;"
d="M 31.1750,18.4000
31.1750,19.1500
29.1750,19.1500
29.1750,18.4000
Z" /> 
<path style="fill:#4A5F65; fill-opacity:0.9000; stroke:none;fill-rule:evenodd;"
d="M 31.1750,17.3000
31.1750,18.0500
29.1750,18.0500
29.1750,17.3000
Z" /> 
<path style="fill:#4A5F65; fill-opacity:0.9000; stroke:none;fill-rule:evenodd;"
d="M 31.1750,16.2000
31.1750,16.9500
29.1750,16.9500
29.1750,16.2000
Z" /> 
<path style="fill:#4A5F65; fill-opacity:0.9000; stroke:none;fill-rule:evenodd;"
d="M 31.1750,15.1000
31.1750,15.8500
29.1750,15.8500
29.1750,15.1000
Z" /> 
<path style="fill:#4A5F65; fill-opacity:0.9000; stroke:none;fill-rule:evenodd;"
d="M 31.1750,14.0000
31.1750,14.7500
29.1750,14.7500
29.1750,14.0000
Z" /> 
<path style="fill:#4A5F65; fill-opacity:0.9000; stroke:none;fill-rule:evenodd;"
d="M 31.1750,12.9000
31.1750,13.6500
29.1750,13.6500
29.1750,12.9000
Z" /> 
<path style="fill:#4A5F65; fill-opacity:0.9000; stroke:none;fill-rule:evenodd;"
d="M 31.1750,11.8000
31.1750,12.5500
29.1750,12.5500
29.1750,11.8000
Z" /> 
<path style="fill:#4A5F65; fill-opacity:0.9000; stroke:none;fill-rule:evenodd;"
d="M 31.1750,10.7000
31.1750,11.4500
29.1750,11.4500
29.1750,10.7000
Z" /> 
<path style="fill:#4A5F65; fill-opacity:0.9000; stroke:none;fill-rule:evenodd;"
d="M 31.1750,9.6000
31.1750,10.3500
29.1750,10.3500
29.1750,9.6000
Z" /> 
<path style="fill:#4A5F65; fill-opacity:0.9000; stroke:none;fill-rule:evenodd;"
d="M 31.1750,8.5000
31.1750,9.2500
29.1750,9.2500
29.1750,8.5000
Z" /> 
<path style="fill:#4A5F65; fill-opacity:0.9000; stroke:none;fill-rule:evenodd;"
d="M 31.1750,7.4000
31.1750,8.1500
29.1750,8.1500
29.1750,7.4000
Z" /> 
<path style="fill:#4A5F65; fill-opacity:0.9000; stroke:none;fill-rule:evenodd;"
d="M 31.1750,6.3000
31.1750,7.0500
29.1750,7.0500
29.1750,6.3000
Z" /> 
<path style="fill:#4A5F65; fill-opacity:0.9000; stroke:none;fill-rule:evenodd;"
d="M 31.1750,5.2000
31.1750,5.9500
29.1750,5.9500
29.1750,5.2000
Z" /> 
<path style="fill:#4A5F65; fill-opacity:0.9000; stroke:none;fill-rule:evenodd;"
d="M 31.1750,4.1000
31.1750,4.8500
29.1750,4.8500
29.1750,4.1000
Z" /> 
<path style="fill:#4A5F65; fill-opacity:0.9000; stroke:none;fill-rule:evenodd;"
d="M 27.2000,0.8750
27.9500,0.8750
27.9500,2.8750
27.2000,2.8750
Z" /> 
<path style="fill:#4A5F65; fill-opacity:0.9000; stroke:none;fill-rule:evenodd;"
d="M 26.1000,0.8750
26.8500,0.8750
26.8500,2.8750
26.1000,2.8750
Z" /> 
<path style="fill:#4A5F65; fill-opacity:0.9000; stroke:none;fill-rule:evenodd;"
d="M 25.0000,0.8750
25.7500,0.8750
25.7500,2.8750
25.0000,2.8750
Z" /> 
<path style="fill:#4A5F65; fill-opacity:0.9000; stroke:none;fill-rule:evenodd;"
d="M 23.9000,0.8750
24.6500,0.8750
24.6500,2.8750
23.9000,2.8750
Z" /> 
<path style="fill:#4A5F65; fill-opacity:0.9000; stroke:none;fill-rule:evenodd;"
d="M 22.8000,0.8750
23.5500,0.8750
23.5500,2.8750
22.8000,2.8750
Z" /> 
<path style="fill:#4A5F65; fill-opacity:0.9000; stroke:none;fill-rule:evenodd;"
d="M 21.7000,0.8750
22.4500,0.8750
22.4500,2.8750
21.7000,2.8750
Z" /> 
<path style="fill:#4A5F65; fill-opacity:0.9000; stroke:none;fill-rule:evenodd;"
d="M 20.6000,0.8750
21.3500,0.8750
21.3500,2.8750
20.6000,2.8750
Z" /> 
<path style="fill:#4A5F65; fill-opacity:0.9000; stroke:none;fill-rule:evenodd;"
d="M 19.5000,0.8750
20.2500,0.8750
20.2500,2.8750
19.5000,2.8750
Z" /> 
<path style="fill:#4A5F65; fill-opacity:0.9000; stroke:none;fill-rule:evenodd;"
d="M 18.4000,0.8750
19.1500,0.8750
19.1500,2.8750
18.4000,2.8750
Z" /> 
<path style="fill:#4A5F65; fill-opacity:0.9000; stroke:none;fill-rule:evenodd;"
d="M 17.3000,0.8750
18.0500,0.8750
18.0500,2.8750
17.3000,2.8750
Z" /> 
<path style="fill:#4A5F65; fill-opacity:0.9000; stroke:none;fill-rule:evenodd;"
d="M 16.2000,0.8750
16.9500,0.8750
16.9500,2.8750
16.2000,2.8750
Z" /> 
<path style="fill:#4A5F65; fill-opacity:0.9000; stroke:none;fill-rule:evenodd;"
d="M 15.1000,0.8750
15.8500,0.8750
15.8500,2.8750
15.1000,2.8750
Z" /> 
<path style="fill:#4A5F65; fill-opacity:0.9000; stroke:none;fill-rule:evenodd;"
d="M 14.0000,0.8750
14.7500,0.8750
14.7500,2.8750
14.0000,2.8750
Z" /> 
<path style="fill:#4A5F65; fill-opacity:0.9000; stroke:none;fill-rule:evenodd;"
d="M 12.9000,0.8750
13.6500,0.8750
13.6500,2.8750
12.9000,2.8750
Z" /> 
<path style="fill:#4A5F65; fill-opacity:0.9000; stroke:none;fill-rule:evenodd;"
d="M 11.8000,0.8750
12.5500,0.8750
12.5500,2.8750
11.8000,2.8750
Z" /> 
<path style="fill:#4A5F65; fill-opacity:0.9000; stroke:none;fill-rule:evenodd;"
d="M 10.7000,0.8750
11.4500,0.8750
11.4500,2.8750
10.7000,2.8750
Z" /> 
<path style="fill:#4A5F65; fill-opacity:0.9000; stroke:none;fill-rule:evenodd;"
d="M 9.6000,0.8750
10.3500,0.8750
10.3500,2.8750
9.6000,2.8750
Z" /> 
<path style="fill:#4A5F65; fill-opacity:0.9000; stroke:none;fill-rule:evenodd;"
d="M 8.5000,0.8750
9.2500,0.8750
9.2500,2.8750
8.5000,2.8750
Z" /> 
<path style="fill:#4A5F65; fill-opacity:0.9000; stroke:none;fill-rule:evenodd;"
d="M 7.4000,0.8750
8.1500,0.8750
8.1500,2.8750
7.4000,2.8750
Z" /> 
<path style="fill:#4A5F65; fill-opacity:0.9000; stroke:none;fill-rule:evenodd;"
d="M 6.3000,0.8750
7.0500,0.8750
7.0500,2.8750
6.3000,2.8750
Z" /> 
<path style="fill:#4A5F65; fill-opacity:0.9000; stroke:none;fill-rule:evenodd;"
d="M 5.2000,0.8750
5.9500,0.8750
5.9500,2.8750
5.2000,2.8750
Z" /> 
<path style="fill:#4A5F65; fill-opacity:0.9000; stroke:none;fill-rule:evenodd;"
d="M 4.1000,0.8750
4.8500,0.8750
4.8500,2.8750
4.1000,2.8750
Z" /> 
<path style="fill:#4A5F65; fill-opacity:0.9000; stroke:none;fill-rule:evenodd;"
d="M 0.2424,0.9495
0.9495,0.2424
3.0708,2.3637
2.3637,3.0708
Z" /> 
<path style="fill:#4A5F65; fill-opacity:0.9000; stroke:none;fill-rule:evenodd;"
d="M 0.9495,31.8076
0.2424,31.1005
2.3637,28.9792
3.0708,29.6863
Z" /> 
<path style="fill:#4A5F65; fill-opacity:0.9000; stroke:none;fill-rule:evenodd;"
d="M 29.6863,3.0708
28.9792,2.3637
31.1005,0.2424
31.8076,0.9495
Z" /> 
<path style="fill:#4A5F65; fill-opacity:0.9000; stroke:none;fill-rule:evenodd;"
d="M 31.8076,31.1005
31.1005,31.8076
28.9792,29.6863
29.6863,28.9792
Z" /> 
</g>
<g style="fill:none; 
stroke:#0D115E; stroke-width:0.1000; stroke-opacity:1; 
stroke-linecap:round; stroke-linejoin:round;">
<text x="16.0250" y="16.0250"
textLength="4.3857" font-size="1.3333" lengthAdjust="spacingAndGlyphs"
text-anchor="middle" opacity="0" stroke-opacity="0">REF**</text>
<g class="stroked-text"><desc>REF**</desc>
<path d="M14.6917 15.9824
L14.3583 15.5062
" />
<path d="M14.1202 15.9824
L14.1202 14.9824
" />
<path d="M14.1202 14.9824
L14.5012 14.9824
" />
<path d="M14.5012 14.9824
L14.5964 15.0300
" />
<path d="M14.5964 15.0300
L14.6440 15.0777
" />
<path d="M14.6440 15.0777
L14.6917 15.1729
" />
<path d="M14.6917 15.1729
L14.6917 15.3158
" />
<path d="M14.6917 15.3158
L14.6440 15.4110
" />
<path d="M14.6440 15.4110
L14.5964 15.4586
" />
<path d="M14.5964 15.4586
L14.5012 15.5062
" />
<path d="M14.5012 15.5062
L14.1202 15.5062
" />
<path d="M15.1202 15.4586
L15.4536 15.4586
" />
<path d="M15.5964 15.9824
L15.1202 15.9824
" />
<path d="M15.1202 15.9824
L15.1202 14.9824
" />
<path d="M15.1202 14.9824
L15.5964 14.9824
" />
<path d="M16.3583 15.4586
L16.0250 15.4586
" />
<path d="M16.0250 15.9824
L16.0250 14.9824
" />
<path d="M16.0250 14.9824
L16.5012 14.9824
" />
<path d="M17.0250 14.9824
L17.0250 15.2205
" />
<path d="M16.7869 15.1253
L17.0250 15.2205
" />
<path d="M17.0250 15.2205
L17.2631 15.1253
" />
<path d="M16.8821 15.4110
L17.0250 15.2205
" />
<path d="M17.0250 15.2205
L17.1679 15.4110
" />
<path d="M17.7869 14.9824
L17.7869 15.2205
" />
<path d="M17.5488 15.1253
L17.7869 15.2205
" />
<path d="M17.7869 15.2205
L18.0250 15.1253
" />
<path d="M17.6440 15.4110
L17.7869 15.2205
" />
<path d="M17.7869 15.2205
L17.9298 15.4110
" />
</g><path style="fill:none; 
stroke:#0D115E; stroke-width:0.1000; stroke-opacity:1; 
stroke-linecap:round; stroke-linejoin:round;fill:none"
d="M 4.0250,4.0250
28.0250,4.0250
28.0250,28.0250
4.0250,28.0250
Z" /> 
<path style="fill:#0D115E; fill-opacity:1.0000; 
stroke:#0D115E; stroke-width:0.1000; stroke-opacity:1; 
stroke-linecap:round; stroke-linejoin:round;fill-rule:evenodd;"
d="M 4.7750,4.7750
4.2750,4.5250
4.7750,4.2750
Z" /> 
<path style="fill:none; 
stroke:#00D91D; stroke-width:0.0500; stroke-opacity:1; 
stroke-linecap:round; stroke-linejoin:round;fill:none"
d="M 0.0250,0.0250
32.0250,0.0250
32.0250,32.0250
0.0250,32.0250
Z" /> 
</g>
<g style="fill:none; 
stroke:#505050; stroke-width:0.1500; stroke-opacity:1; 
stroke-linecap:round; stroke-linejoin:round;">
<text x="16.0250" y="17.5250"
textLength="22.8690" font-size="1.3333" lengthAdjust="spacingAndGlyphs"
text-anchor="middle" opacity="0" stroke-opacity="0">MilkV_DuoModule01_Stamp_88</text>
<g class="stroked-text"><desc>MilkV_DuoModule01_Stamp_88</desc>
<path d="M4.9536 17.4798
L4.9536 16.4798
" />
<path d="M4.9536 16.4798
L5.2869 17.1941
" />
<path d="M5.2869 17.1941
L5.6202 16.4798
" />
<path d="M5.6202 16.4798
L5.6202 17.4798
" />
<path d="M6.0964 17.4798
L6.0964 16.8132
" />
<path d="M6.0964 16.4798
L6.0488 16.5274
" />
<path d="M6.0488 16.5274
L6.0964 16.5751
" />
<path d="M6.0964 16.5751
L6.1440 16.5274
" />
<path d="M6.1440 16.5274
L6.0964 16.4798
" />
<path d="M6.0964 16.4798
L6.0964 16.5751
" />
<path d="M6.7155 17.4798
L6.6202 17.4322
" />
<path d="M6.6202 17.4322
L6.5726 17.3370
" />
<path d="M6.5726 17.3370
L6.5726 16.4798
" />
<path d="M7.0964 17.4798
L7.0964 16.4798
" />
<path d="M7.1917 17.0989
L7.4774 17.4798
" />
<path d="M7.4774 16.8132
L7.0964 17.1941
" />
<path d="M7.7631 16.4798
L8.0964 17.4798
" />
<path d="M8.0964 17.4798
L8.4298 16.4798
" />
<path d="M8.5250 17.5751
L9.2869 17.5751
" />
<path d="M9.5250 17.4798
L9.5250 16.4798
" />
<path d="M9.5250 16.4798
L9.7631 16.4798
" />
<path d="M9.7631 16.4798
L9.9060 16.5274
" />
<path d="M9.9060 16.5274
L10.0012 16.6227
" />
<path d="M10.0012 16.6227
L10.0488 16.7179
" />
<path d="M10.0488 16.7179
L10.0964 16.9084
" />
<path d="M10.0964 16.9084
L10.0964 17.0512
" />
<path d="M10.0964 17.0512
L10.0488 17.2417
" />
<path d="M10.0488 17.2417
L10.0012 17.3370
" />
<path d="M10.0012 17.3370
L9.9060 17.4322
" />
<path d="M9.9060 17.4322
L9.7631 17.4798
" />
<path d="M9.7631 17.4798
L9.5250 17.4798
" />
<path d="M10.9536 16.8132
L10.9536 17.4798
" />
<path d="M10.5250 16.8132
L10.5250 17.3370
" />
<path d="M10.5250 17.3370
L10.5726 17.4322
" />
<path d="M10.5726 17.4322
L10.6679 17.4798
" />
<path d="M10.6679 17.4798
L10.8107 17.4798
" />
<path d="M10.8107 17.4798
L10.9060 17.4322
" />
<path d="M10.9060 17.4322
L10.9536 17.3846
" />
<path d="M11.5726 17.4798
L11.4774 17.4322
" />
<path d="M11.4774 17.4322
L11.4298 17.3846
" />
<path d="M11.4298 17.3846
L11.3821 17.2893
" />
<path d="M11.3821 17.2893
L11.3821 17.0036
" />
<path d="M11.3821 17.0036
L11.4298 16.9084
" />
<path d="M11.4298 16.9084
L11.4774 16.8608
" />
<path d="M11.4774 16.8608
L11.5726 16.8132
" />
<path d="M11.5726 16.8132
L11.7155 16.8132
" />
<path d="M11.7155 16.8132
L11.8107 16.8608
" />
<path d="M11.8107 16.8608
L11.8583 16.9084
" />
<path d="M11.8583 16.9084
L11.9060 17.0036
" />
<path d="M11.9060 17.0036
L11.9060 17.2893
" />
<path d="M11.9060 17.2893
L11.8583 17.3846
" />
<path d="M11.8583 17.3846
L11.8107 17.4322
" />
<path d="M11.8107 17.4322
L11.7155 17.4798
" />
<path d="M11.7155 17.4798
L11.5726 17.4798
" />
<path d="M12.3345 17.4798
L12.3345 16.4798
" />
<path d="M12.3345 16.4798
L12.6679 17.1941
" />
<path d="M12.6679 17.1941
L13.0012 16.4798
" />
<path d="M13.0012 16.4798
L13.0012 17.4798
" />
<path d="M13.6202 17.4798
L13.5250 17.4322
" />
<path d="M13.5250 17.4322
L13.4774 17.3846
" />
<path d="M13.4774 17.3846
L13.4298 17.2893
" />
<path d="M13.4298 17.2893
L13.4298 17.0036
" />
<path d="M13.4298 17.0036
L13.4774 16.9084
" />
<path d="M13.4774 16.9084
L13.5250 16.8608
" />
<path d="M13.5250 16.8608
L13.6202 16.8132
" />
<path d="M13.6202 16.8132
L13.7631 16.8132
" />
<path d="M13.7631 16.8132
L13.8583 16.8608
" />
<path d="M13.8583 16.8608
L13.9060 16.9084
" />
<path d="M13.9060 16.9084
L13.9536 17.0036
" />
<path d="M13.9536 17.0036
L13.9536 17.2893
" />
<path d="M13.9536 17.2893
L13.9060 17.3846
" />
<path d="M13.9060 17.3846
L13.8583 17.4322
" />
<path d="M13.8583 17.4322
L13.7631 17.4798
" />
<path d="M13.7631 17.4798
L13.6202 17.4798
" />
<path d="M14.8107 17.4798
L14.8107 16.4798
" />
<path d="M14.8107 17.4322
L14.7155 17.4798
" />
<path d="M14.7155 17.4798
L14.5250 17.4798
" />
<path d="M14.5250 17.4798
L14.4298 17.4322
" />
<path d="M14.4298 17.4322
L14.3821 17.3846
" />
<path d="M14.3821 17.3846
L14.3345 17.2893
" />
<path d="M14.3345 17.2893
L14.3345 17.0036
" />
<path d="M14.3345 17.0036
L14.3821 16.9084
" />
<path d="M14.3821 16.9084
L14.4298 16.8608
" />
<path d="M14.4298 16.8608
L14.5250 16.8132
" />
<path d="M14.5250 16.8132
L14.7155 16.8132
" />
<path d="M14.7155 16.8132
L14.8107 16.8608
" />
<path d="M15.7155 16.8132
L15.7155 17.4798
" />
<path d="M15.2869 16.8132
L15.2869 17.3370
" />
<path d="M15.2869 17.3370
L15.3345 17.4322
" />
<path d="M15.3345 17.4322
L15.4298 17.4798
" />
<path d="M15.4298 17.4798
L15.5726 17.4798
" />
<path d="M15.5726 17.4798
L15.6679 17.4322
" />
<path d="M15.6679 17.4322
L15.7155 17.3846
" />
<path d="M16.3345 17.4798
L16.2393 17.4322
" />
<path d="M16.2393 17.4322
L16.1917 17.3370
" />
<path d="M16.1917 17.3370
L16.1917 16.4798
" />
<path d="M17.0964 17.4322
L17.0012 17.4798
" />
<path d="M17.0012 17.4798
L16.8107 17.4798
" />
<path d="M16.8107 17.4798
L16.7155 17.4322
" />
<path d="M16.7155 17.4322
L16.6679 17.3370
" />
<path d="M16.6679 17.3370
L16.6679 16.9560
" />
<path d="M16.6679 16.9560
L16.7155 16.8608
" />
<path d="M16.7155 16.8608
L16.8107 16.8132
" />
<path d="M16.8107 16.8132
L17.0012 16.8132
" />
<path d="M17.0012 16.8132
L17.0964 16.8608
" />
<path d="M17.0964 16.8608
L17.1440 16.9560
" />
<path d="M17.1440 16.9560
L17.1440 17.0512
" />
<path d="M17.1440 17.0512
L16.6679 17.1465
" />
<path d="M17.7631 16.4798
L17.8583 16.4798
" />
<path d="M17.8583 16.4798
L17.9536 16.5274
" />
<path d="M17.9536 16.5274
L18.0012 16.5751
" />
<path d="M18.0012 16.5751
L18.0488 16.6703
" />
<path d="M18.0488 16.6703
L18.0964 16.8608
" />
<path d="M18.0964 16.8608
L18.0964 17.0989
" />
<path d="M18.0964 17.0989
L18.0488 17.2893
" />
<path d="M18.0488 17.2893
L18.0012 17.3846
" />
<path d="M18.0012 17.3846
L17.9536 17.4322
" />
<path d="M17.9536 17.4322
L17.8583 17.4798
" />
<path d="M17.8583 17.4798
L17.7631 17.4798
" />
<path d="M17.7631 17.4798
L17.6679 17.4322
" />
<path d="M17.6679 17.4322
L17.6202 17.3846
" />
<path d="M17.6202 17.3846
L17.5726 17.2893
" />
<path d="M17.5726 17.2893
L17.5250 17.0989
" />
<path d="M17.5250 17.0989
L17.5250 16.8608
" />
<path d="M17.5250 16.8608
L17.5726 16.6703
" />
<path d="M17.5726 16.6703
L17.6202 16.5751
" />
<path d="M17.6202 16.5751
L17.6679 16.5274
" />
<path d="M17.6679 16.5274
L17.7631 16.4798
" />
<path d="M19.0488 17.4798
L18.4774 17.4798
" />
<path d="M18.7631 17.4798
L18.7631 16.4798
" />
<path d="M18.7631 16.4798
L18.6679 16.6227
" />
<path d="M18.6679 16.6227
L18.5726 16.7179
" />
<path d="M18.5726 16.7179
L18.4774 16.7655
" />
<path d="M19.2393 17.5751
L20.0012 17.5751
" />
<path d="M20.1917 17.4322
L20.3345 17.4798
" />
<path d="M20.3345 17.4798
L20.5726 17.4798
" />
<path d="M20.5726 17.4798
L20.6679 17.4322
" />
<path d="M20.6679 17.4322
L20.7155 17.3846
" />
<path d="M20.7155 17.3846
L20.7631 17.2893
" />
<path d="M20.7631 17.2893
L20.7631 17.1941
" />
<path d="M20.7631 17.1941
L20.7155 17.0989
" />
<path d="M20.7155 17.0989
L20.6679 17.0512
" />
<path d="M20.6679 17.0512
L20.5726 17.0036
" />
<path d="M20.5726 17.0036
L20.3821 16.9560
" />
<path d="M20.3821 16.9560
L20.2869 16.9084
" />
<path d="M20.2869 16.9084
L20.2393 16.8608
" />
<path d="M20.2393 16.8608
L20.1917 16.7655
" />
<path d="M20.1917 16.7655
L20.1917 16.6703
" />
<path d="M20.1917 16.6703
L20.2393 16.5751
" />
<path d="M20.2393 16.5751
L20.2869 16.5274
" />
<path d="M20.2869 16.5274
L20.3821 16.4798
" />
<path d="M20.3821 16.4798
L20.6202 16.4798
" />
<path d="M20.6202 16.4798
L20.7631 16.5274
" />
<path d="M21.0488 16.8132
L21.4298 16.8132
" />
<path d="M21.1917 16.4798
L21.1917 17.3370
" />
<path d="M21.1917 17.3370
L21.2393 17.4322
" />
<path d="M21.2393 17.4322
L21.3345 17.4798
" />
<path d="M21.3345 17.4798
L21.4298 17.4798
" />
<path d="M22.1917 17.4798
L22.1917 16.9560
" />
<path d="M22.1917 16.9560
L22.1440 16.8608
" />
<path d="M22.1440 16.8608
L22.0488 16.8132
" />
<path d="M22.0488 16.8132
L21.8583 16.8132
" />
<path d="M21.8583 16.8132
L21.7631 16.8608
" />
<path d="M22.1917 17.4322
L22.0964 17.4798
" />
<path d="M22.0964 17.4798
L21.8583 17.4798
" />
<path d="M21.8583 17.4798
L21.7631 17.4322
" />
<path d="M21.7631 17.4322
L21.7155 17.3370
" />
<path d="M21.7155 17.3370
L21.7155 17.2417
" />
<path d="M21.7155 17.2417
L21.7631 17.1465
" />
<path d="M21.7631 17.1465
L21.8583 17.0989
" />
<path d="M21.8583 17.0989
L22.0964 17.0989
" />
<path d="M22.0964 17.0989
L22.1917 17.0512
" />
<path d="M22.6679 17.4798
L22.6679 16.8132
" />
<path d="M22.6679 16.9084
L22.7155 16.8608
" />
<path d="M22.7155 16.8608
L22.8107 16.8132
" />
<path d="M22.8107 16.8132
L22.9536 16.8132
" />
<path d="M22.9536 16.8132
L23.0488 16.8608
" />
<path d="M23.0488 16.8608
L23.0964 16.9560
" />
<path d="M23.0964 16.9560
L23.0964 17.4798
" />
<path d="M23.0964 16.9560
L23.1440 16.8608
" />
<path d="M23.1440 16.8608
L23.2393 16.8132
" />
<path d="M23.2393 16.8132
L23.3821 16.8132
" />
<path d="M23.3821 16.8132
L23.4774 16.8608
" />
<path d="M23.4774 16.8608
L23.5250 16.9560
" />
<path d="M23.5250 16.9560
L23.5250 17.4798
" />
<path d="M24.0012 16.8132
L24.0012 17.8132
" />
<path d="M24.0012 16.8608
L24.0964 16.8132
" />
<path d="M24.0964 16.8132
L24.2869 16.8132
" />
<path d="M24.2869 16.8132
L24.3821 16.8608
" />
<path d="M24.3821 16.8608
L24.4298 16.9084
" />
<path d="M24.4298 16.9084
L24.4774 17.0036
" />
<path d="M24.4774 17.0036
L24.4774 17.2893
" />
<path d="M24.4774 17.2893
L24.4298 17.3846
" />
<path d="M24.4298 17.3846
L24.3821 17.4322
" />
<path d="M24.3821 17.4322
L24.2869 17.4798
" />
<path d="M24.2869 17.4798
L24.0964 17.4798
" />
<path d="M24.0964 17.4798
L24.0012 17.4322
" />
<path d="M24.6679 17.5751
L25.4298 17.5751
" />
<path d="M25.8107 16.9084
L25.7155 16.8608
" />
<path d="M25.7155 16.8608
L25.6679 16.8132
" />
<path d="M25.6679 16.8132
L25.6202 16.7179
" />
<path d="M25.6202 16.7179
L25.6202 16.6703
" />
<path d="M25.6202 16.6703
L25.6679 16.5751
" />
<path d="M25.6679 16.5751
L25.7155 16.5274
" />
<path d="M25.7155 16.5274
L25.8107 16.4798
" />
<path d="M25.8107 16.4798
L26.0012 16.4798
" />
<path d="M26.0012 16.4798
L26.0964 16.5274
" />
<path d="M26.0964 16.5274
L26.1440 16.5751
" />
<path d="M26.1440 16.5751
L26.1917 16.6703
" />
<path d="M26.1917 16.6703
L26.1917 16.7179
" />
<path d="M26.1917 16.7179
L26.1440 16.8132
" />
<path d="M26.1440 16.8132
L26.0964 16.8608
" />
<path d="M26.0964 16.8608
L26.0012 16.9084
" />
<path d="M26.0012 16.9084
L25.8107 16.9084
" />
<path d="M25.8107 16.9084
L25.7155 16.9560
" />
<path d="M25.7155 16.9560
L25.6679 17.0036
" />
<path d="M25.6679 17.0036
L25.6202 17.0989
" />
<path d="M25.6202 17.0989
L25.6202 17.2893
" />
<path d="M25.6202 17.2893
L25.6679 17.3846
" />
<path d="M25.6679 17.3846
L25.7155 17.4322
" />
<path d="M25.7155 17.4322
L25.8107 17.4798
" />
<path d="M25.8107 17.4798
L26.0012 17.4798
" />
<path d="M26.0012 17.4798
L26.0964 17.4322
" />
<path d="M26.0964 17.4322
L26.1440 17.3846
" />
<path d="M26.1440 17.3846
L26.1917 17.2893
" />
<path d="M26.1917 17.2893
L26.1917 17.0989
" />
<path d="M26.1917 17.0989
L26.1440 17.0036
" />
<path d="M26.1440 17.0036
L26.0964 16.9560
" />
<path d="M26.0964 16.9560
L26.0012 16.9084
" />
<path d="M26.7631 16.9084
L26.6679 16.8608
" />
<path d="M26.6679 16.8608
L26.6202 16.8132
" />
<path d="M26.6202 16.8132
L26.5726 16.7179
" />
<path d="M26.5726 16.7179
L26.5726 16.6703
" />
<path d="M26.5726 16.6703
L26.6202 16.5751
" />
<path d="M26.6202 16.5751
L26.6679 16.5274
" />
<path d="M26.6679 16.5274
L26.7631 16.4798
" />
<path d="M26.7631 16.4798
L26.9536 16.4798
" />
<path d="M26.9536 16.4798
L27.0488 16.5274
" />
<path d="M27.0488 16.5274
L27.0964 16.5751
" />
<path d="M27.0964 16.5751
L27.1440 16.6703
" />
<path d="M27.1440 16.6703
L27.1440 16.7179
" />
<path d="M27.1440 16.7179
L27.0964 16.8132
" />
<path d="M27.0964 16.8132
L27.0488 16.8608
" />
<path d="M27.0488 16.8608
L26.9536 16.9084
" />
<path d="M26.9536 16.9084
L26.7631 16.9084
" />
<path d="M26.7631 16.9084
L26.6679 16.9560
" />
<path d="M26.6679 16.9560
L26.6202 17.0036
" />
<path d="M26.6202 17.0036
L26.5726 17.0989
" />
<path d="M26.5726 17.0989
L26.5726 17.2893
" />
<path d="M26.5726 17.2893
L26.6202 17.3846
" />
<path d="M26.6202 17.3846
L26.6679 17.4322
" />
<path d="M26.6679 17.4322
L26.7631 17.4798
" />
<path d="M26.7631 17.4798
L26.9536 17.4798
" />
<path d="M26.9536 17.4798
L27.0488 17.4322
" />
<path d="M27.0488 17.4322
L27.0964 17.3846
" />
<path d="M27.0964 17.3846
L27.1440 17.2893
" />
<path d="M27.1440 17.2893
L27.1440 17.0989
" />
<path d="M27.1440 17.0989
L27.0964 17.0036
" />
<path d="M27.0964 17.0036
L27.0488 16.9560
" />
<path d="M27.0488 16.9560
L26.9536 16.9084
" />
</g><text x="16.0250" y="19.0250"
textLength="4.5357" font-size="1.3333" lengthAdjust="spacingAndGlyphs"
text-anchor="middle" opacity="0" stroke-opacity="0">REF**</text>
<g class="stroked-text"><desc>REF**</desc>
<path d="M14.6917 18.9798
L14.3583 18.5036
" />
<path d="M14.1202 18.9798
L14.1202 17.9798
" />
<path d="M14.1202 17.9798
L14.5012 17.9798
" />
<path d="M14.5012 17.9798
L14.5964 18.0274
" />
<path d="M14.5964 18.0274
L14.6440 18.0751
" />
<path d="M14.6440 18.0751
L14.6917 18.1703
" />
<path d="M14.6917 18.1703
L14.6917 18.3132
" />
<path d="M14.6917 18.3132
L14.6440 18.4084
" />
<path d="M14.6440 18.4084
L14.5964 18.4560
" />
<path d="M14.5964 18.4560
L14.5012 18.5036
" />
<path d="M14.5012 18.5036
L14.1202 18.5036
" />
<path d="M15.1202 18.4560
L15.4536 18.4560
" />
<path d="M15.5964 18.9798
L15.1202 18.9798
" />
<path d="M15.1202 18.9798
L15.1202 17.9798
" />
<path d="M15.1202 17.9798
L15.5964 17.9798
" />
<path d="M16.3583 18.4560
L16.0250 18.4560
" />
<path d="M16.0250 18.9798
L16.0250 17.9798
" />
<path d="M16.0250 17.9798
L16.5012 17.9798
" />
<path d="M17.0250 17.9798
L17.0250 18.2179
" />
<path d="M16.7869 18.1227
L17.0250 18.2179
" />
<path d="M17.0250 18.2179
L17.2631 18.1227
" />
<path d="M16.8821 18.4084
L17.0250 18.2179
" />
<path d="M17.0250 18.2179
L17.1679 18.4084
" />
<path d="M17.7869 17.9798
L17.7869 18.2179
" />
<path d="M17.5488 18.1227
L17.7869 18.2179
" />
<path d="M17.7869 18.2179
L18.0250 18.1227
" />
<path d="M17.6440 18.4084
L17.7869 18.2179
" />
<path d="M17.7869 18.2179
L17.9298 18.4084
" />
</g><path style="fill:none; 
stroke:#505050; stroke-width:0.1000; stroke-opacity:1; 
stroke-linecap:round; stroke-linejoin:round;fill:none"
d="M 4.0250,4.0250
28.0250,4.0250
28.0250,28.0250
4.0250,28.0250
Z" /> 
<path style="fill:#505050; fill-opacity:1.0000; 
stroke:#505050; stroke-width:0.1000; stroke-opacity:1; 
stroke-linecap:round; stroke-linejoin:round;fill-rule:evenodd;"
d="M 4.7750,4.7750
4.2750,4.5250
4.7750,4.2750
Z" /> 
</g> 
</svg>
